<svg xmlns="http://www.w3.org/2000/svg" xmlns:xlink="http://www.w3.org/1999/xlink" width="1000" zoomAndPan="magnify" viewBox="0 0 750 749.999995" height="1000" preserveAspectRatio="xMidYMid meet" version="1.0"><defs><g/><clipPath id="d6eeb97959"><path d="M 35.25 0 L 714.75 0 C 734.21875 0 750 15.78125 750 35.25 L 750 714.75 C 750 734.21875 734.21875 750 714.75 750 L 35.25 750 C 15.78125 750 0 734.21875 0 714.75 L 0 35.25 C 0 15.78125 15.78125 0 35.25 0 Z M 35.25 0 " clip-rule="nonzero"/></clipPath><clipPath id="a41885201a"><path d="M 0 0 L 750 0 L 750 750 L 0 750 Z M 0 0 " clip-rule="nonzero"/></clipPath><clipPath id="ce495835d8"><path d="M 35.25 0 L 714.75 0 C 734.21875 0 750 15.78125 750 35.25 L 750 714.75 C 750 734.21875 734.21875 750 714.75 750 L 35.25 750 C 15.78125 750 0 734.21875 0 714.75 L 0 35.25 C 0 15.78125 15.78125 0 35.25 0 Z M 35.25 0 " clip-rule="nonzero"/></clipPath><linearGradient x1="0.000000524288" gradientTransform="matrix(2.929687, 0, 0, 2.929687, 0.00000265, 0.00002)" y1="255.999999" x2="255.999999" gradientUnits="userSpaceOnUse" y2="0.000000524288" id="c9fe29e9ea"><stop stop-opacity="1" stop-color="rgb(57.649231%, 34.509277%, 96.859741%)" offset="0"/><stop stop-opacity="1" stop-color="rgb(57.495117%, 34.701538%, 96.832275%)" offset="0.0078125"/><stop stop-opacity="1" stop-color="rgb(57.188416%, 35.087585%, 96.775818%)" offset="0.015625"/><stop stop-opacity="1" stop-color="rgb(56.88324%, 35.473633%, 96.720886%)" offset="0.0234375"/><stop stop-opacity="1" stop-color="rgb(56.576538%, 35.85968%, 96.665955%)" offset="0.03125"/><stop stop-opacity="1" stop-color="rgb(56.269836%, 36.245728%, 96.611023%)" offset="0.0390625"/><stop stop-opacity="1" stop-color="rgb(55.963135%, 36.631775%, 96.556091%)" offset="0.046875"/><stop stop-opacity="1" stop-color="rgb(55.656433%, 37.017822%, 96.50116%)" offset="0.0546875"/><stop stop-opacity="1" stop-color="rgb(55.351257%, 37.40387%, 96.444702%)" offset="0.0625"/><stop stop-opacity="1" stop-color="rgb(55.044556%, 37.789917%, 96.389771%)" offset="0.0703125"/><stop stop-opacity="1" stop-color="rgb(54.737854%, 38.175964%, 96.334839%)" offset="0.078125"/><stop stop-opacity="1" stop-color="rgb(54.431152%, 38.562012%, 96.279907%)" offset="0.0859375"/><stop stop-opacity="1" stop-color="rgb(54.124451%, 38.948059%, 96.224976%)" offset="0.09375"/><stop stop-opacity="1" stop-color="rgb(53.819275%, 39.334106%, 96.170044%)" offset="0.101562"/><stop stop-opacity="1" stop-color="rgb(53.512573%, 39.720154%, 96.115112%)" offset="0.109375"/><stop stop-opacity="1" stop-color="rgb(53.205872%, 40.106201%, 96.058655%)" offset="0.117188"/><stop stop-opacity="1" stop-color="rgb(52.89917%, 40.492249%, 96.003723%)" offset="0.125"/><stop stop-opacity="1" stop-color="rgb(52.592468%, 40.878296%, 95.948792%)" offset="0.132812"/><stop stop-opacity="1" stop-color="rgb(52.285767%, 41.265869%, 95.89386%)" offset="0.140625"/><stop stop-opacity="1" stop-color="rgb(51.980591%, 41.651917%, 95.838928%)" offset="0.148438"/><stop stop-opacity="1" stop-color="rgb(51.673889%, 42.037964%, 95.783997%)" offset="0.15625"/><stop stop-opacity="1" stop-color="rgb(51.367188%, 42.424011%, 95.729065%)" offset="0.164062"/><stop stop-opacity="1" stop-color="rgb(51.060486%, 42.810059%, 95.672607%)" offset="0.171875"/><stop stop-opacity="1" stop-color="rgb(50.753784%, 43.196106%, 95.617676%)" offset="0.179688"/><stop stop-opacity="1" stop-color="rgb(50.448608%, 43.582153%, 95.562744%)" offset="0.1875"/><stop stop-opacity="1" stop-color="rgb(50.141907%, 43.968201%, 95.507812%)" offset="0.195312"/><stop stop-opacity="1" stop-color="rgb(49.835205%, 44.354248%, 95.452881%)" offset="0.203125"/><stop stop-opacity="1" stop-color="rgb(49.528503%, 44.740295%, 95.397949%)" offset="0.210938"/><stop stop-opacity="1" stop-color="rgb(49.221802%, 45.126343%, 95.343018%)" offset="0.21875"/><stop stop-opacity="1" stop-color="rgb(48.916626%, 45.51239%, 95.28656%)" offset="0.226562"/><stop stop-opacity="1" stop-color="rgb(48.609924%, 45.898438%, 95.231628%)" offset="0.234375"/><stop stop-opacity="1" stop-color="rgb(48.303223%, 46.284485%, 95.176697%)" offset="0.242188"/><stop stop-opacity="1" stop-color="rgb(47.996521%, 46.670532%, 95.121765%)" offset="0.25"/><stop stop-opacity="1" stop-color="rgb(47.689819%, 47.05658%, 95.066833%)" offset="0.257812"/><stop stop-opacity="1" stop-color="rgb(47.384644%, 47.442627%, 95.011902%)" offset="0.265625"/><stop stop-opacity="1" stop-color="rgb(47.077942%, 47.828674%, 94.95697%)" offset="0.273438"/><stop stop-opacity="1" stop-color="rgb(46.77124%, 48.214722%, 94.900513%)" offset="0.28125"/><stop stop-opacity="1" stop-color="rgb(46.464539%, 48.600769%, 94.845581%)" offset="0.289062"/><stop stop-opacity="1" stop-color="rgb(46.157837%, 48.986816%, 94.790649%)" offset="0.296875"/><stop stop-opacity="1" stop-color="rgb(45.852661%, 49.372864%, 94.735718%)" offset="0.304688"/><stop stop-opacity="1" stop-color="rgb(45.545959%, 49.758911%, 94.680786%)" offset="0.3125"/><stop stop-opacity="1" stop-color="rgb(45.239258%, 50.144958%, 94.625854%)" offset="0.320312"/><stop stop-opacity="1" stop-color="rgb(44.932556%, 50.531006%, 94.569397%)" offset="0.328125"/><stop stop-opacity="1" stop-color="rgb(44.625854%, 50.917053%, 94.514465%)" offset="0.335938"/><stop stop-opacity="1" stop-color="rgb(44.320679%, 51.303101%, 94.459534%)" offset="0.34375"/><stop stop-opacity="1" stop-color="rgb(44.013977%, 51.689148%, 94.404602%)" offset="0.351562"/><stop stop-opacity="1" stop-color="rgb(43.707275%, 52.075195%, 94.34967%)" offset="0.359375"/><stop stop-opacity="1" stop-color="rgb(43.400574%, 52.461243%, 94.294739%)" offset="0.367188"/><stop stop-opacity="1" stop-color="rgb(43.093872%, 52.84729%, 94.239807%)" offset="0.375"/><stop stop-opacity="1" stop-color="rgb(42.78717%, 53.233337%, 94.18335%)" offset="0.382812"/><stop stop-opacity="1" stop-color="rgb(42.481995%, 53.619385%, 94.128418%)" offset="0.390625"/><stop stop-opacity="1" stop-color="rgb(42.175293%, 54.006958%, 94.073486%)" offset="0.398438"/><stop stop-opacity="1" stop-color="rgb(41.868591%, 54.393005%, 94.018555%)" offset="0.40625"/><stop stop-opacity="1" stop-color="rgb(41.56189%, 54.779053%, 93.963623%)" offset="0.414062"/><stop stop-opacity="1" stop-color="rgb(41.255188%, 55.1651%, 93.908691%)" offset="0.421875"/><stop stop-opacity="1" stop-color="rgb(40.950012%, 55.551147%, 93.85376%)" offset="0.429688"/><stop stop-opacity="1" stop-color="rgb(40.643311%, 55.937195%, 93.797302%)" offset="0.4375"/><stop stop-opacity="1" stop-color="rgb(40.336609%, 56.323242%, 93.742371%)" offset="0.445312"/><stop stop-opacity="1" stop-color="rgb(40.029907%, 56.70929%, 93.687439%)" offset="0.453125"/><stop stop-opacity="1" stop-color="rgb(39.723206%, 57.095337%, 93.632507%)" offset="0.460937"/><stop stop-opacity="1" stop-color="rgb(39.41803%, 57.481384%, 93.577576%)" offset="0.46875"/><stop stop-opacity="1" stop-color="rgb(39.111328%, 57.867432%, 93.522644%)" offset="0.476562"/><stop stop-opacity="1" stop-color="rgb(38.804626%, 58.253479%, 93.467712%)" offset="0.484375"/><stop stop-opacity="1" stop-color="rgb(38.497925%, 58.639526%, 93.411255%)" offset="0.492187"/><stop stop-opacity="1" stop-color="rgb(38.191223%, 59.025574%, 93.356323%)" offset="0.5"/><stop stop-opacity="1" stop-color="rgb(37.789917%, 59.414673%, 93.292236%)" offset="0.503906"/><stop stop-opacity="1" stop-color="rgb(37.542725%, 59.611511%, 93.255615%)" offset="0.507812"/><stop stop-opacity="1" stop-color="rgb(37.294006%, 59.806824%, 93.218994%)" offset="0.511719"/><stop stop-opacity="1" stop-color="rgb(37.046814%, 60.003662%, 93.182373%)" offset="0.515625"/><stop stop-opacity="1" stop-color="rgb(36.798096%, 60.198975%, 93.145752%)" offset="0.519531"/><stop stop-opacity="1" stop-color="rgb(36.549377%, 60.395813%, 93.109131%)" offset="0.523438"/><stop stop-opacity="1" stop-color="rgb(36.300659%, 60.591125%, 93.07251%)" offset="0.527344"/><stop stop-opacity="1" stop-color="rgb(36.053467%, 60.787964%, 93.035889%)" offset="0.53125"/><stop stop-opacity="1" stop-color="rgb(35.804749%, 60.983276%, 92.999268%)" offset="0.535156"/><stop stop-opacity="1" stop-color="rgb(35.557556%, 61.180115%, 92.962646%)" offset="0.539063"/><stop stop-opacity="1" stop-color="rgb(35.308838%, 61.375427%, 92.9245%)" offset="0.542969"/><stop stop-opacity="1" stop-color="rgb(35.06012%, 61.57074%, 92.887878%)" offset="0.546875"/><stop stop-opacity="1" stop-color="rgb(34.811401%, 61.766052%, 92.851257%)" offset="0.550781"/><stop stop-opacity="1" stop-color="rgb(34.564209%, 61.962891%, 92.814636%)" offset="0.554688"/><stop stop-opacity="1" stop-color="rgb(34.315491%, 62.158203%, 92.778015%)" offset="0.558594"/><stop stop-opacity="1" stop-color="rgb(34.068298%, 62.355042%, 92.741394%)" offset="0.5625"/><stop stop-opacity="1" stop-color="rgb(33.81958%, 62.550354%, 92.704773%)" offset="0.566406"/><stop stop-opacity="1" stop-color="rgb(33.570862%, 62.747192%, 92.668152%)" offset="0.570312"/><stop stop-opacity="1" stop-color="rgb(33.322144%, 62.942505%, 92.631531%)" offset="0.574219"/><stop stop-opacity="1" stop-color="rgb(33.074951%, 63.139343%, 92.59491%)" offset="0.578125"/><stop stop-opacity="1" stop-color="rgb(32.826233%, 63.334656%, 92.558289%)" offset="0.582031"/><stop stop-opacity="1" stop-color="rgb(32.579041%, 63.531494%, 92.521667%)" offset="0.585938"/><stop stop-opacity="1" stop-color="rgb(32.330322%, 63.726807%, 92.485046%)" offset="0.589844"/><stop stop-opacity="1" stop-color="rgb(32.081604%, 63.923645%, 92.448425%)" offset="0.59375"/><stop stop-opacity="1" stop-color="rgb(31.832886%, 64.118958%, 92.411804%)" offset="0.597656"/><stop stop-opacity="1" stop-color="rgb(31.585693%, 64.315796%, 92.375183%)" offset="0.601562"/><stop stop-opacity="1" stop-color="rgb(31.336975%, 64.511108%, 92.337036%)" offset="0.605469"/><stop stop-opacity="1" stop-color="rgb(31.089783%, 64.707947%, 92.300415%)" offset="0.609375"/><stop stop-opacity="1" stop-color="rgb(30.841064%, 64.903259%, 92.263794%)" offset="0.613281"/><stop stop-opacity="1" stop-color="rgb(30.593872%, 65.100098%, 92.227173%)" offset="0.617188"/><stop stop-opacity="1" stop-color="rgb(30.345154%, 65.29541%, 92.190552%)" offset="0.621094"/><stop stop-opacity="1" stop-color="rgb(30.096436%, 65.492249%, 92.153931%)" offset="0.625"/><stop stop-opacity="1" stop-color="rgb(29.847717%, 65.687561%, 92.11731%)" offset="0.628906"/><stop stop-opacity="1" stop-color="rgb(29.600525%, 65.884399%, 92.080688%)" offset="0.632813"/><stop stop-opacity="1" stop-color="rgb(29.351807%, 66.079712%, 92.044067%)" offset="0.636719"/><stop stop-opacity="1" stop-color="rgb(29.104614%, 66.27655%, 92.007446%)" offset="0.640625"/><stop stop-opacity="1" stop-color="rgb(28.855896%, 66.471863%, 91.970825%)" offset="0.644531"/><stop stop-opacity="1" stop-color="rgb(28.607178%, 66.667175%, 91.934204%)" offset="0.648438"/><stop stop-opacity="1" stop-color="rgb(28.358459%, 66.862488%, 91.897583%)" offset="0.652344"/><stop stop-opacity="1" stop-color="rgb(28.111267%, 67.059326%, 91.860962%)" offset="0.65625"/><stop stop-opacity="1" stop-color="rgb(27.862549%, 67.254639%, 91.824341%)" offset="0.660156"/><stop stop-opacity="1" stop-color="rgb(27.615356%, 67.451477%, 91.78772%)" offset="0.664063"/><stop stop-opacity="1" stop-color="rgb(27.366638%, 67.64679%, 91.749573%)" offset="0.667969"/><stop stop-opacity="1" stop-color="rgb(27.11792%, 67.843628%, 91.712952%)" offset="0.671875"/><stop stop-opacity="1" stop-color="rgb(26.869202%, 68.03894%, 91.676331%)" offset="0.675781"/><stop stop-opacity="1" stop-color="rgb(26.622009%, 68.235779%, 91.639709%)" offset="0.679688"/><stop stop-opacity="1" stop-color="rgb(26.373291%, 68.431091%, 91.603088%)" offset="0.683594"/><stop stop-opacity="1" stop-color="rgb(26.126099%, 68.62793%, 91.566467%)" offset="0.6875"/><stop stop-opacity="1" stop-color="rgb(25.87738%, 68.823242%, 91.529846%)" offset="0.691406"/><stop stop-opacity="1" stop-color="rgb(25.628662%, 69.020081%, 91.493225%)" offset="0.695312"/><stop stop-opacity="1" stop-color="rgb(25.379944%, 69.215393%, 91.456604%)" offset="0.699219"/><stop stop-opacity="1" stop-color="rgb(25.132751%, 69.412231%, 91.419983%)" offset="0.703125"/><stop stop-opacity="1" stop-color="rgb(24.884033%, 69.607544%, 91.383362%)" offset="0.707031"/><stop stop-opacity="1" stop-color="rgb(24.636841%, 69.804382%, 91.346741%)" offset="0.710938"/><stop stop-opacity="1" stop-color="rgb(24.388123%, 69.999695%, 91.31012%)" offset="0.714844"/><stop stop-opacity="1" stop-color="rgb(24.139404%, 70.196533%, 91.273499%)" offset="0.71875"/><stop stop-opacity="1" stop-color="rgb(23.890686%, 70.391846%, 91.236877%)" offset="0.722656"/><stop stop-opacity="1" stop-color="rgb(23.643494%, 70.588684%, 91.200256%)" offset="0.726563"/><stop stop-opacity="1" stop-color="rgb(23.394775%, 70.783997%, 91.162109%)" offset="0.730469"/><stop stop-opacity="1" stop-color="rgb(23.147583%, 70.980835%, 91.125488%)" offset="0.734375"/><stop stop-opacity="1" stop-color="rgb(22.898865%, 71.176147%, 91.088867%)" offset="0.738281"/><stop stop-opacity="1" stop-color="rgb(22.650146%, 71.37146%, 91.052246%)" offset="0.742188"/><stop stop-opacity="1" stop-color="rgb(22.401428%, 71.566772%, 91.015625%)" offset="0.746094"/><stop stop-opacity="1" stop-color="rgb(22.154236%, 71.763611%, 90.979004%)" offset="0.75"/><stop stop-opacity="1" stop-color="rgb(21.905518%, 71.958923%, 90.942383%)" offset="0.753906"/><stop stop-opacity="1" stop-color="rgb(21.658325%, 72.155762%, 90.905762%)" offset="0.757813"/><stop stop-opacity="1" stop-color="rgb(21.409607%, 72.351074%, 90.869141%)" offset="0.761719"/><stop stop-opacity="1" stop-color="rgb(21.160889%, 72.547913%, 90.83252%)" offset="0.765625"/><stop stop-opacity="1" stop-color="rgb(20.91217%, 72.743225%, 90.795898%)" offset="0.769531"/><stop stop-opacity="1" stop-color="rgb(20.664978%, 72.940063%, 90.759277%)" offset="0.773438"/><stop stop-opacity="1" stop-color="rgb(20.41626%, 73.135376%, 90.722656%)" offset="0.777344"/><stop stop-opacity="1" stop-color="rgb(20.169067%, 73.332214%, 90.686035%)" offset="0.78125"/><stop stop-opacity="1" stop-color="rgb(19.920349%, 73.527527%, 90.649414%)" offset="0.785156"/><stop stop-opacity="1" stop-color="rgb(19.671631%, 73.724365%, 90.612793%)" offset="0.789062"/><stop stop-opacity="1" stop-color="rgb(19.422913%, 73.919678%, 90.574646%)" offset="0.792969"/><stop stop-opacity="1" stop-color="rgb(19.17572%, 74.116516%, 90.538025%)" offset="0.796875"/><stop stop-opacity="1" stop-color="rgb(18.927002%, 74.311829%, 90.501404%)" offset="0.800781"/><stop stop-opacity="1" stop-color="rgb(18.67981%, 74.508667%, 90.464783%)" offset="0.804688"/><stop stop-opacity="1" stop-color="rgb(18.431091%, 74.703979%, 90.428162%)" offset="0.808594"/><stop stop-opacity="1" stop-color="rgb(18.182373%, 74.900818%, 90.391541%)" offset="0.8125"/><stop stop-opacity="1" stop-color="rgb(17.933655%, 75.09613%, 90.354919%)" offset="0.816406"/><stop stop-opacity="1" stop-color="rgb(17.686462%, 75.292969%, 90.318298%)" offset="0.820312"/><stop stop-opacity="1" stop-color="rgb(17.437744%, 75.488281%, 90.281677%)" offset="0.824219"/><stop stop-opacity="1" stop-color="rgb(17.190552%, 75.68512%, 90.245056%)" offset="0.828125"/><stop stop-opacity="1" stop-color="rgb(16.941833%, 75.880432%, 90.208435%)" offset="0.832031"/><stop stop-opacity="1" stop-color="rgb(16.693115%, 76.077271%, 90.171814%)" offset="0.835938"/><stop stop-opacity="1" stop-color="rgb(16.444397%, 76.272583%, 90.135193%)" offset="0.839844"/><stop stop-opacity="1" stop-color="rgb(16.197205%, 76.467896%, 90.098572%)" offset="0.84375"/><stop stop-opacity="1" stop-color="rgb(15.948486%, 76.663208%, 90.060425%)" offset="0.847656"/><stop stop-opacity="1" stop-color="rgb(15.701294%, 76.860046%, 90.023804%)" offset="0.851563"/><stop stop-opacity="1" stop-color="rgb(15.452576%, 77.055359%, 89.987183%)" offset="0.855469"/><stop stop-opacity="1" stop-color="rgb(15.203857%, 77.252197%, 89.950562%)" offset="0.859375"/><stop stop-opacity="1" stop-color="rgb(14.955139%, 77.44751%, 89.91394%)" offset="0.863281"/><stop stop-opacity="1" stop-color="rgb(14.707947%, 77.644348%, 89.877319%)" offset="0.867188"/><stop stop-opacity="1" stop-color="rgb(14.459229%, 77.839661%, 89.840698%)" offset="0.871094"/><stop stop-opacity="1" stop-color="rgb(14.212036%, 78.036499%, 89.804077%)" offset="0.875"/><stop stop-opacity="1" stop-color="rgb(13.963318%, 78.231812%, 89.767456%)" offset="0.878906"/><stop stop-opacity="1" stop-color="rgb(13.7146%, 78.42865%, 89.730835%)" offset="0.882813"/><stop stop-opacity="1" stop-color="rgb(13.465881%, 78.623962%, 89.694214%)" offset="0.886719"/><stop stop-opacity="1" stop-color="rgb(13.218689%, 78.820801%, 89.657593%)" offset="0.890625"/><stop stop-opacity="1" stop-color="rgb(12.969971%, 79.016113%, 89.620972%)" offset="0.894531"/><stop stop-opacity="1" stop-color="rgb(12.722778%, 79.212952%, 89.584351%)" offset="0.898437"/><stop stop-opacity="1" stop-color="rgb(12.47406%, 79.408264%, 89.547729%)" offset="0.902344"/><stop stop-opacity="1" stop-color="rgb(12.226868%, 79.605103%, 89.511108%)" offset="0.90625"/><stop stop-opacity="1" stop-color="rgb(11.978149%, 79.800415%, 89.472961%)" offset="0.910156"/><stop stop-opacity="1" stop-color="rgb(11.729431%, 79.997253%, 89.43634%)" offset="0.914062"/><stop stop-opacity="1" stop-color="rgb(11.480713%, 80.192566%, 89.399719%)" offset="0.917969"/><stop stop-opacity="1" stop-color="rgb(11.233521%, 80.389404%, 89.363098%)" offset="0.921875"/><stop stop-opacity="1" stop-color="rgb(10.984802%, 80.584717%, 89.326477%)" offset="0.925781"/><stop stop-opacity="1" stop-color="rgb(10.73761%, 80.781555%, 89.289856%)" offset="0.929688"/><stop stop-opacity="1" stop-color="rgb(10.488892%, 80.976868%, 89.253235%)" offset="0.933594"/><stop stop-opacity="1" stop-color="rgb(10.240173%, 81.173706%, 89.216614%)" offset="0.9375"/><stop stop-opacity="1" stop-color="rgb(9.991455%, 81.369019%, 89.179993%)" offset="0.941406"/><stop stop-opacity="1" stop-color="rgb(9.744263%, 81.564331%, 89.143372%)" offset="0.945312"/><stop stop-opacity="1" stop-color="rgb(9.495544%, 81.759644%, 89.10675%)" offset="0.949219"/><stop stop-opacity="1" stop-color="rgb(9.248352%, 81.956482%, 89.070129%)" offset="0.953125"/><stop stop-opacity="1" stop-color="rgb(8.999634%, 82.151794%, 89.033508%)" offset="0.957031"/><stop stop-opacity="1" stop-color="rgb(8.750916%, 82.348633%, 88.996887%)" offset="0.960938"/><stop stop-opacity="1" stop-color="rgb(8.502197%, 82.543945%, 88.960266%)" offset="0.964844"/><stop stop-opacity="1" stop-color="rgb(8.255005%, 82.740784%, 88.923645%)" offset="0.96875"/><stop stop-opacity="1" stop-color="rgb(8.006287%, 82.936096%, 88.885498%)" offset="0.972656"/><stop stop-opacity="1" stop-color="rgb(7.759094%, 83.132935%, 88.848877%)" offset="0.976563"/><stop stop-opacity="1" stop-color="rgb(7.510376%, 83.328247%, 88.812256%)" offset="0.980469"/><stop stop-opacity="1" stop-color="rgb(7.261658%, 83.525085%, 88.775635%)" offset="0.984375"/><stop stop-opacity="1" stop-color="rgb(7.012939%, 83.720398%, 88.739014%)" offset="0.988281"/><stop stop-opacity="1" stop-color="rgb(6.765747%, 83.917236%, 88.702393%)" offset="0.992188"/><stop stop-opacity="1" stop-color="rgb(6.517029%, 84.112549%, 88.665771%)" offset="0.996094"/><stop stop-opacity="1" stop-color="rgb(6.269836%, 84.309387%, 88.62915%)" offset="1"/></linearGradient><clipPath id="7e0a55fdaf"><rect x="0" width="750" y="0" height="750"/></clipPath><clipPath id="8dc3d33a22"><path d="M 0.238281 10 L 581.761719 10 L 581.761719 473 L 0.238281 473 Z M 0.238281 10 " clip-rule="nonzero"/></clipPath><clipPath id="d8e67c0e88"><rect x="0" width="83" y="0" height="196"/></clipPath><clipPath id="2b445bce0d"><path d="M 274 0.71875 L 385 0.71875 L 385 196 L 274 196 Z M 274 0.71875 " clip-rule="nonzero"/></clipPath><clipPath id="0b6198e0a6"><rect x="0" width="111" y="0" height="196"/></clipPath><clipPath id="38d956c075"><rect x="0" width="582" y="0" height="474"/></clipPath></defs><g clip-path="url(#d6eeb97959)"><g transform="matrix(1, 0, 0, 1, 0, -0.000000000000042435)"><g clip-path="url(#7e0a55fdaf)"><g clip-path="url(#a41885201a)"><g clip-path="url(#ce495835d8)"><rect x="-165" fill="url(#c9fe29e9ea)" width="1080" height="1079.999992" y="-164.999999"/></g></g></g></g></g><g fill="#ffffff" fill-opacity="1"><g transform="translate(77.012694, 665.78154)"><g><path d="M 62.078125 -73.390625 L 76.765625 -73.390625 L 76.765625 0 L 62.078125 0 L 62.078125 -16 C 59.929688 -10.613281 56.800781 -6.207031 52.6875 -2.78125 C 48.582031 0.632812 43.054688 2.34375 36.109375 2.34375 C 26.316406 2.34375 19.316406 -0.242188 15.109375 -5.421875 C 10.910156 -10.609375 8.8125 -18 8.8125 -27.59375 L 8.8125 -73.390625 L 23.484375 -73.390625 L 23.484375 -28.90625 C 23.484375 -23.820312 24.238281 -19.882812 25.75 -17.09375 C 27.269531 -14.3125 29.328125 -12.40625 31.921875 -11.375 C 34.515625 -10.34375 37.425781 -9.828125 40.65625 -9.828125 C 47.207031 -9.828125 52.414062 -12.519531 56.28125 -17.90625 C 60.144531 -23.289062 62.078125 -31.460938 62.078125 -42.421875 Z M 62.078125 -73.390625 "/></g></g></g><g fill="#ffffff" fill-opacity="1"><g transform="translate(162.570116, 665.78154)"><g><path d="M 51.515625 -75.734375 C 61.296875 -75.734375 68.191406 -73.140625 72.203125 -67.953125 C 76.210938 -62.765625 78.21875 -55.378906 78.21875 -45.796875 L 78.21875 0 L 63.546875 0 L 63.546875 -44.46875 C 63.546875 -49.65625 62.835938 -53.617188 61.421875 -56.359375 C 60.003906 -59.097656 58.070312 -60.976562 55.625 -62 C 53.175781 -63.03125 50.390625 -63.546875 47.265625 -63.546875 C 40.117188 -63.546875 34.613281 -61.023438 30.75 -55.984375 C 26.882812 -50.953125 24.953125 -42.613281 24.953125 -30.96875 L 24.953125 0 L 10.28125 0 L 10.28125 -73.390625 L 24.953125 -73.390625 L 24.953125 -56.9375 C 27.203125 -62.414062 30.429688 -66.914062 34.640625 -70.4375 C 38.847656 -73.96875 44.472656 -75.734375 51.515625 -75.734375 Z M 51.515625 -75.734375 "/></g></g></g><g fill="#ffffff" fill-opacity="1"><g transform="translate(248.861345, 665.78154)"><g><path d="M 38.59375 0 C 32.726562 0 28.179688 -0.78125 24.953125 -2.34375 C 21.722656 -3.914062 19.492188 -6.289062 18.265625 -9.46875 C 17.046875 -12.644531 16.4375 -16.679688 16.4375 -21.578125 L 16.4375 -62.078125 L 2.5 -62.078125 L 2.5 -69.71875 L 17.765625 -75 L 23.78125 -89.96875 L 31.109375 -89.96875 L 31.109375 -73.390625 L 54.59375 -73.390625 L 54.59375 -62.078125 L 31.109375 -62.078125 L 31.109375 -11.734375 L 53.125 -11.734375 L 53.125 0 Z M 38.59375 0 "/></g></g></g><g fill="#ffffff" fill-opacity="1"><g transform="translate(304.627681, 665.78154)"><g><path d="M 44.328125 -8.515625 C 50.972656 -8.515625 55.9375 -9.832031 59.21875 -12.46875 C 62.5 -15.113281 64.628906 -18.34375 65.609375 -22.15625 L 79.109375 -22.15625 C 78.816406 -19.613281 78.007812 -16.921875 76.6875 -14.078125 C 75.363281 -11.242188 73.351562 -8.578125 70.65625 -6.078125 C 67.96875 -3.585938 64.445312 -1.5625 60.09375 0 C 55.738281 1.5625 50.335938 2.34375 43.890625 2.34375 C 35.179688 2.34375 28.085938 0.582031 22.609375 -2.9375 C 17.128906 -6.457031 13.113281 -11.175781 10.5625 -17.09375 C 8.019531 -23.019531 6.75 -29.601562 6.75 -36.84375 C 6.75 -43.976562 8.09375 -50.476562 10.78125 -56.34375 C 13.476562 -62.21875 17.585938 -66.914062 23.109375 -70.4375 C 28.640625 -73.96875 35.566406 -75.734375 43.890625 -75.734375 C 51.710938 -75.734375 58.238281 -74.066406 63.46875 -70.734375 C 68.707031 -67.410156 72.644531 -62.910156 75.28125 -57.234375 C 77.925781 -51.554688 79.25 -45.195312 79.25 -38.15625 C 79.25 -37.175781 79.25 -36.242188 79.25 -35.359375 C 79.25 -34.484375 79.148438 -33.554688 78.953125 -32.578125 L 21.140625 -32.578125 C 21.523438 -26.410156 22.769531 -21.59375 24.875 -18.125 C 26.976562 -14.65625 29.691406 -12.1875 33.015625 -10.71875 C 36.347656 -9.25 40.117188 -8.515625 44.328125 -8.515625 Z M 44.03125 -64.875 C 37.769531 -64.875 32.632812 -63.304688 28.625 -60.171875 C 24.613281 -57.046875 22.164062 -51.421875 21.28125 -43.296875 L 65.15625 -43.296875 C 64.769531 -50.734375 62.789062 -56.1875 59.21875 -59.65625 C 55.644531 -63.132812 50.582031 -64.875 44.03125 -64.875 Z M 44.03125 -64.875 "/></g></g></g><g fill="#ffffff" fill-opacity="1"><g transform="translate(387.837004, 665.78154)"><g><path d="M 38.59375 0 C 32.726562 0 28.179688 -0.78125 24.953125 -2.34375 C 21.722656 -3.914062 19.492188 -6.289062 18.265625 -9.46875 C 17.046875 -12.644531 16.4375 -16.679688 16.4375 -21.578125 L 16.4375 -62.078125 L 2.5 -62.078125 L 2.5 -69.71875 L 17.765625 -75 L 23.78125 -89.96875 L 31.109375 -89.96875 L 31.109375 -73.390625 L 54.59375 -73.390625 L 54.59375 -62.078125 L 31.109375 -62.078125 L 31.109375 -11.734375 L 53.125 -11.734375 L 53.125 0 Z M 38.59375 0 "/></g></g></g><g fill="#ffffff" fill-opacity="1"><g transform="translate(446.538555, 665.78154)"><g><path d="M 51.515625 -75.734375 C 61.296875 -75.734375 68.191406 -73.140625 72.203125 -67.953125 C 76.210938 -62.765625 78.21875 -55.378906 78.21875 -45.796875 L 78.21875 0 L 63.546875 0 L 63.546875 -44.46875 C 63.546875 -49.65625 62.835938 -53.617188 61.421875 -56.359375 C 60.003906 -59.097656 58.070312 -60.976562 55.625 -62 C 53.175781 -63.03125 50.390625 -63.546875 47.265625 -63.546875 C 40.117188 -63.546875 34.613281 -61.023438 30.75 -55.984375 C 26.882812 -50.953125 24.953125 -42.613281 24.953125 -30.96875 L 24.953125 0 L 10.28125 0 L 10.28125 -102.734375 L 24.953125 -102.734375 L 24.953125 -56.9375 C 27.203125 -62.414062 30.429688 -66.914062 34.640625 -70.4375 C 38.847656 -73.96875 44.472656 -75.734375 51.515625 -75.734375 Z M 51.515625 -75.734375 "/></g></g></g><g fill="#ffffff" fill-opacity="1"><g transform="translate(531.802436, 665.78154)"><g><path d="M 44.328125 -8.515625 C 50.972656 -8.515625 55.9375 -9.832031 59.21875 -12.46875 C 62.5 -15.113281 64.628906 -18.34375 65.609375 -22.15625 L 79.109375 -22.15625 C 78.816406 -19.613281 78.007812 -16.921875 76.6875 -14.078125 C 75.363281 -11.242188 73.351562 -8.578125 70.65625 -6.078125 C 67.96875 -3.585938 64.445312 -1.5625 60.09375 0 C 55.738281 1.5625 50.335938 2.34375 43.890625 2.34375 C 35.179688 2.34375 28.085938 0.582031 22.609375 -2.9375 C 17.128906 -6.457031 13.113281 -11.175781 10.5625 -17.09375 C 8.019531 -23.019531 6.75 -29.601562 6.75 -36.84375 C 6.75 -43.976562 8.09375 -50.476562 10.78125 -56.34375 C 13.476562 -62.21875 17.585938 -66.914062 23.109375 -70.4375 C 28.640625 -73.96875 35.566406 -75.734375 43.890625 -75.734375 C 51.710938 -75.734375 58.238281 -74.066406 63.46875 -70.734375 C 68.707031 -67.410156 72.644531 -62.910156 75.28125 -57.234375 C 77.925781 -51.554688 79.25 -45.195312 79.25 -38.15625 C 79.25 -37.175781 79.25 -36.242188 79.25 -35.359375 C 79.25 -34.484375 79.148438 -33.554688 78.953125 -32.578125 L 21.140625 -32.578125 C 21.523438 -26.410156 22.769531 -21.59375 24.875 -18.125 C 26.976562 -14.65625 29.691406 -12.1875 33.015625 -10.71875 C 36.347656 -9.25 40.117188 -8.515625 44.328125 -8.515625 Z M 44.03125 -64.875 C 37.769531 -64.875 32.632812 -63.304688 28.625 -60.171875 C 24.613281 -57.046875 22.164062 -51.421875 21.28125 -43.296875 L 65.15625 -43.296875 C 64.769531 -50.734375 62.789062 -56.1875 59.21875 -59.65625 C 55.644531 -63.132812 50.582031 -64.875 44.03125 -64.875 Z M 44.03125 -64.875 "/></g></g></g><g fill="#ffffff" fill-opacity="1"><g transform="translate(615.45206, 665.78154)"><g><path d="M 50.78125 -74.5625 L 52.984375 -74.5625 L 52.984375 -60.328125 L 49.3125 -60.328125 C 42.757812 -60.328125 37.71875 -59.03125 34.1875 -56.4375 C 30.664062 -53.84375 28.242188 -50.125 26.921875 -45.28125 C 25.609375 -40.4375 24.953125 -34.6875 24.953125 -28.03125 L 24.953125 0 L 10.28125 0 L 10.28125 -73.390625 L 24.796875 -73.390625 L 24.796875 -55.625 C 27.046875 -61.101562 30.222656 -65.628906 34.328125 -69.203125 C 38.441406 -72.773438 43.925781 -74.5625 50.78125 -74.5625 Z M 50.78125 -74.5625 "/></g></g></g><g transform="matrix(1, 0, 0, 1, 84, 42)"><g clip-path="url(#38d956c075)"><g clip-path="url(#8dc3d33a22)"><path fill="#ffffff" d="M 407.347656 61.363281 C 429.613281 71.394531 446.300781 81.726562 459.023438 93.167969 C 482.113281 113.953125 499.152344 140.070312 538.601562 174.636719 C 554.914062 188.910156 561.695312 205.992188 562.40625 223.519531 C 563.164062 241.050781 557.40625 258.984375 547.867188 273.222656 C 538.324219 287.5 525.152344 297.753906 511.976562 301.003906 C 499.40625 304.078125 486.6875 300.625 473.550781 288.441406 C 466.929688 229.382812 459.320312 169.371094 441.292969 120.386719 C 432.976562 97.664062 421.28125 78.207031 407.347656 61.363281 Z M 174.898438 61.363281 C 161 78.207031 149.269531 97.664062 140.9375 120.386719 C 122.949219 169.363281 115.34375 229.382812 108.714844 288.441406 C 95.582031 300.625 82.816406 304.078125 70.253906 301.003906 C 57.113281 297.746094 43.941406 287.5 34.363281 273.222656 C 24.816406 258.984375 19.097656 241.042969 19.824219 223.519531 C 20.582031 205.992188 27.355469 188.917969 43.671875 174.636719 C 83.121094 140.078125 100.125 113.953125 123.246094 93.167969 C 135.945312 81.726562 152.675781 71.394531 174.898438 61.363281 Z M 291.125 29.628906 C 305.015625 29.746094 321.488281 33.003906 337.277344 36.832031 C 380.320312 47.207031 405.914062 79.652344 423.289062 126.964844 C 440.632812 174.148438 448.578125 234.75 455.316406 295.136719 C 455.316406 332.121094 453.234375 371.722656 432.867188 401.328125 C 413.183594 429.828125 376.003906 451.417969 300.742188 453.082031 L 300.742188 397.433594 C 329.816406 393.382812 342.953125 371.378906 342.953125 355.476562 C 342.953125 334.316406 319.75 325.761719 291.089844 325.761719 C 262.464844 325.761719 239.21875 334.316406 239.21875 355.476562 C 239.21875 371.378906 252.398438 393.382812 281.472656 397.433594 L 281.472656 453.082031 C 206.25 451.375 169.066406 429.828125 149.421875 401.328125 C 129.015625 371.722656 126.972656 332.121094 126.929688 295.136719 C 133.675781 234.75 141.65625 174.148438 158.957031 126.964844 C 176.335938 79.652344 201.96875 47.207031 245.011719 36.832031 C 260.800781 33.007812 277.265625 29.753906 291.125 29.628906 Z M 291.089844 10.402344 C 273.296875 12.03125 255.007812 14.152344 239.75 18.3125 C 169.707031 37.4375 135.746094 56.058594 110.351562 78.882812 C 84.910156 101.792969 68.851562 127.007812 30.996094 160.171875 C 10.855469 177.847656 1.578125 200.527344 0.636719 222.667969 C -0.316406 244.851562 6.691406 266.511719 18.386719 283.972656 C 30.082031 301.410156 46.589844 314.9375 65.710938 319.671875 C 79.296875 323 94.140625 321.183594 107.921875 313.578125 C 108.757812 346.558594 112.996094 382.363281 133.589844 412.28125 C 158.203125 447.972656 205.710938 472.554688 291.082031 472.554688 L 291.117188 472.484375 L 291.199219 472.554688 C 376.5625 472.554688 424.074219 447.980469 448.683594 412.28125 C 469.277344 382.371094 473.480469 346.558594 474.351562 313.578125 C 488.132812 321.183594 502.941406 323.007812 516.570312 319.671875 C 535.6875 314.9375 552.1875 301.417969 563.851562 283.972656 C 575.546875 266.519531 582.554688 244.851562 581.648438 222.667969 C 580.695312 200.527344 571.425781 177.839844 551.242188 160.171875 C 513.386719 127.003906 497.328125 101.792969 471.886719 78.882812 C 446.527344 56.058594 412.53125 37.4375 342.488281 18.3125 C 327.230469 14.152344 308.949219 12.03125 291.191406 10.402344 L 291.113281 10.519531 Z M 291.089844 10.402344 " fill-opacity="1" fill-rule="evenodd"/></g><path fill="#ffffff" d="M 204.839844 216.808594 C 191.820312 216.808594 181.257812 228.960938 181.292969 243.996094 C 181.292969 258.976562 191.820312 271.171875 204.839844 271.171875 C 217.898438 271.171875 228.460938 258.976562 228.460938 243.996094 C 228.460938 228.960938 217.898438 216.808594 204.839844 216.808594 Z M 204.839844 216.808594 " fill-opacity="1" fill-rule="evenodd"/><path fill="#ffffff" d="M 377.328125 216.808594 C 390.351562 216.808594 400.914062 228.960938 400.914062 243.996094 C 400.914062 258.976562 390.351562 271.171875 377.328125 271.171875 C 364.300781 271.171875 353.738281 258.976562 353.738281 243.996094 C 353.738281 228.960938 364.300781 216.808594 377.328125 216.808594 Z M 377.328125 216.808594 " fill-opacity="1" fill-rule="evenodd"/><g transform="matrix(1, 0, 0, 1, 201, 38)"><g clip-path="url(#d8e67c0e88)"><g fill="#ffffff" fill-opacity="1"><g transform="translate(0.552469, 155.42392)"><g><path d="M 16.421875 -13.125 C 14.328125 -13.125 12.367188 -14.140625 10.546875 -16.171875 C 8.722656 -18.210938 7.8125 -20.328125 7.8125 -22.515625 C 7.8125 -23.660156 8.097656 -24.703125 8.671875 -25.640625 C 9.242188 -26.578125 10.101562 -27.410156 11.25 -28.140625 L 65.5 -59.5625 L 66.59375 -43.921875 L 11.40625 -76.90625 C 10.15625 -77.632812 9.269531 -78.546875 8.75 -79.640625 C 8.226562 -80.742188 7.96875 -81.867188 7.96875 -83.015625 C 7.96875 -85.515625 8.851562 -87.726562 10.625 -89.65625 C 12.394531 -91.582031 14.117188 -92.546875 15.796875 -92.546875 C 16.941406 -92.546875 18.164062 -92.207031 19.46875 -91.53125 C 20.769531 -90.851562 22.148438 -90.097656 23.609375 -89.265625 L 74.40625 -59.40625 C 75.65625 -58.675781 76.59375 -57.660156 77.21875 -56.359375 C 77.851562 -55.054688 78.171875 -53.675781 78.171875 -52.21875 C 78.171875 -50.757812 77.851562 -49.375 77.21875 -48.0625 C 76.59375 -46.757812 75.65625 -45.742188 74.40625 -45.015625 L 23.609375 -15.796875 C 22.253906 -15.054688 21.003906 -14.425781 19.859375 -13.90625 C 18.710938 -13.382812 17.566406 -13.125 16.421875 -13.125 Z M 16.421875 -13.125 "/></g></g></g></g></g><g clip-path="url(#2b445bce0d)"><g transform="matrix(1, 0, 0, 1, 274, -0.000000000000049738)"><g clip-path="url(#0b6198e0a6)"><g fill="#ffffff" fill-opacity="1"><g transform="translate(0.521723, 156.015724)"><g><path d="M 15.3125 25.015625 C 13.125 25.015625 11.328125 24.3125 9.921875 22.90625 C 8.515625 21.5 7.8125 19.753906 7.8125 17.671875 C 7.8125 15.578125 8.515625 13.828125 9.921875 12.421875 C 11.328125 11.015625 13.125 10.3125 15.3125 10.3125 L 94.734375 10.3125 C 96.921875 10.3125 98.71875 11.015625 100.125 12.421875 C 101.53125 13.828125 102.234375 15.628906 102.234375 17.828125 C 102.234375 19.910156 101.53125 21.628906 100.125 22.984375 C 98.71875 24.335938 96.921875 25.015625 94.734375 25.015625 Z M 15.3125 25.015625 "/></g></g></g></g></g></g></g></g></svg>